<?xml version="1.0" encoding="UTF-8" standalone="no"?>
<!-- Created with Inkscape (http://www.inkscape.org/) -->

<svg
   xmlns:dc="http://purl.org/dc/elements/1.1/"
   xmlns:cc="http://creativecommons.org/ns#"
   xmlns:rdf="http://www.w3.org/1999/02/22-rdf-syntax-ns#"
   xmlns:svg="http://www.w3.org/2000/svg"
   xmlns="http://www.w3.org/2000/svg"
   xmlns:sodipodi="http://sodipodi.sourceforge.net/DTD/sodipodi-0.dtd"
   xmlns:inkscape="http://www.inkscape.org/namespaces/inkscape"
   version="1.1"
   id="svg365"
   width="200"
   height="200"
   viewBox="0 0 200 200"
   sodipodi:docname="deaf_light.svg"
   inkscape:version="0.92.2 (5c3e80d, 2017-08-06)">
  <metadata
     id="metadata371">
    <rdf:RDF>
      <cc:Work
         rdf:about="">
        <dc:format>image/svg+xml</dc:format>
        <dc:type
           rdf:resource="http://purl.org/dc/dcmitype/StillImage" />
        <dc:title></dc:title>
      </cc:Work>
    </rdf:RDF>
  </metadata>
  <defs
     id="defs369" />
  <sodipodi:namedview
     pagecolor="#ffffff"
     bordercolor="#666666"
     borderopacity="1"
     objecttolerance="10"
     gridtolerance="10"
     guidetolerance="10"
     inkscape:pageopacity="0"
     inkscape:pageshadow="2"
     inkscape:window-width="1048"
     inkscape:window-height="647"
     id="namedview367"
     showgrid="false"
     inkscape:zoom="1.18"
     inkscape:cx="100"
     inkscape:cy="100"
     inkscape:window-x="137"
     inkscape:window-y="156"
     inkscape:window-maximized="0"
     inkscape:current-layer="svg365" />
  <path
     inkscape:connector-curvature="0"
     id="path379"
     d="m 5.4188812,197.58111 c -1.379682,-1.37968 -1.571428,-6.80086 -1.571428,-44.42857 0,-37.62771 0.191746,-43.04889 1.571428,-44.42857 0.864286,-0.86429 2.376253,-1.57143 3.359927,-1.57143 1.6219348,0 1.8400028,-1.51337 2.3415348,-16.25 0.602964,-17.71705 2.504414,-27.37234 7.494332,-38.05514 l 2.732778,-5.85054 9.309566,8.82784 9.309567,8.82784 -2.059567,7.90997 c -1.581196,6.07273 -2.059566,11.00842 -2.059566,21.25 v 13.34003 h 17.428571 c 14.510823,0 17.691648,0.26308 19,1.57143 1.379683,1.37968 1.571429,6.80086 1.571429,44.42857 0,37.62771 -0.191746,43.04889 -1.571429,44.42857 -1.362801,1.3628 -5.800865,1.57143 -33.428571,1.57143 -27.627706,0 -32.0657698,-0.20863 -33.4285718,-1.57143 z m 122.9999988,0 c -1.33983,-1.33982 -1.57143,-5.05108 -1.57143,-25.18097 v -23.60953 l 8.75,8.44231 c 4.8125,4.64327 16.54,15.9747 26.0611,25.18096 l 17.3111,16.73866 h -24.48967 c -20.93001,0 -24.71809,-0.22841 -26.0611,-1.57143 z M 97.343074,110.54621 C 50.320482,65.11272 11.847453,27.730958 11.847453,27.475615 c 0,-0.928758 8.336716,-10.323072 9.160916,-10.323072 0.869186,0 171.839081,164.838907 171.839081,165.676927 0,0.92876 -8.33672,10.32307 -9.16092,10.32307 -0.46631,0 -39.32087,-37.17285 -86.343456,-82.60633 z m 70.504376,37.96446 c -43.4802,-41.87061 -41.46816,-39.74711 -39.51323,-41.70205 1.41475,-1.41475 4.19587,-1.65608 19.08466,-1.65608 h 17.42857 V 92.59536 c 0,-15.09801 -0.85592,-19.0888 -6.74363,-31.44282 -3.60231,-7.55861 -5.90344,-10.8543 -11.26036,-16.12716 C 133.29525,31.689774 119.49952,26.142488 99.93749,26.164412 94.062845,26.171012 87.001637,26.800748 84.079115,27.578737 77.415621,29.35259 67.253839,34.088842 61.252484,38.21788 l -4.635854,3.18955 -8.634588,-8.652451 -8.634589,-8.652455 4,-3.408976 c 9.618499,-8.197307 27.668111,-16.2316677 41.5,-18.4727487 13.640317,-2.21004296 31.275357,-0.844054 44.975197,3.483723 18.43191,5.8226367 38.8748,22.5556477 48.21111,39.4619877 8.64008,15.6456 11.79339,28.49561 11.80614,48.11103 l 0.008,11.625 2.97333,0.59467 c 1.99613,0.39922 3.15608,1.34412 3.52934,2.875 0.30581,1.25418 0.43031,16.97353 0.27667,34.93188 l -0.27979,32.65155 z"
     style="fill:#656565" />
  <path
     inkscape:connector-curvature="0"
     id="path377"
     d="M 97.343074,110.54621 C 50.320482,65.11272 11.847453,27.730958 11.847453,27.475615 c 0,-0.928758 8.336716,-10.323072 9.160916,-10.323072 0.869186,0 171.839081,164.838907 171.839081,165.676927 0,0.92876 -8.33672,10.32307 -9.16092,10.32307 -0.46631,0 -39.32087,-37.17285 -86.343456,-82.60633 z"
     style="fill:#e41819" />
</svg>
