<?xml version="1.0" encoding="UTF-8" standalone="no"?>
<!-- Created with Inkscape (http://www.inkscape.org/) -->

<svg
   xmlns:dc="http://purl.org/dc/elements/1.1/"
   xmlns:cc="http://creativecommons.org/ns#"
   xmlns:rdf="http://www.w3.org/1999/02/22-rdf-syntax-ns#"
   xmlns:svg="http://www.w3.org/2000/svg"
   xmlns="http://www.w3.org/2000/svg"
   xmlns:sodipodi="http://sodipodi.sourceforge.net/DTD/sodipodi-0.dtd"
   xmlns:inkscape="http://www.inkscape.org/namespaces/inkscape"
   version="1.1"
   id="svg339"
   width="200"
   height="200"
   viewBox="0 0 200 200"
   sodipodi:docname="mute_light.svg"
   inkscape:version="0.92.2 (5c3e80d, 2017-08-06)">
  <metadata
     id="metadata345">
    <rdf:RDF>
      <cc:Work
         rdf:about="">
        <dc:format>image/svg+xml</dc:format>
        <dc:type
           rdf:resource="http://purl.org/dc/dcmitype/StillImage" />
        <dc:title></dc:title>
      </cc:Work>
    </rdf:RDF>
  </metadata>
  <defs
     id="defs343" />
  <sodipodi:namedview
     pagecolor="#ffffff"
     bordercolor="#666666"
     borderopacity="1"
     objecttolerance="10"
     gridtolerance="10"
     guidetolerance="10"
     inkscape:pageopacity="0"
     inkscape:pageshadow="2"
     inkscape:window-width="980"
     inkscape:window-height="660"
     id="namedview341"
     showgrid="false"
     inkscape:zoom="1.18"
     inkscape:cx="100"
     inkscape:cy="100"
     inkscape:window-x="183"
     inkscape:window-y="146"
     inkscape:window-maximized="0"
     inkscape:current-layer="svg339" />
  <path
     id="path353"
     style="fill:#666666"
     d="m 68.542375,188.84746 v -10 h 11.5 11.5 v -9.77851 -9.77851 l -6.84227,-1.76261 c -19.37042,-4.98994 -36.0077,-22.04393 -41.16059,-42.19154 -1.66215,-6.49895 -1.99714,-11.0914 -1.99714,-27.379048 v -19.57028 l 9.40079,9.3617 9.40079,9.3617 0.36924,12.11855 c 0.34762,11.408758 0.56778,12.516578 3.75897,18.914218 3.99065,8.0004 11.3784,15.24025 19.71221,19.31761 6.48957,3.17505 19.052785,4.39407 25.869415,2.51014 l 3.98858,-1.10233 7,7.01455 c 7.97466,7.99123 8.038,7.73624 -2.75,11.072 l -6.75,2.08716 v 9.9026 9.9026 h 10.5 10.5 v 10 10 h -32 -31.999995 z m 28.99826,-75.60608 C 51.066585,68.390302 12.708455,31.372092 12.300345,30.978682 c -0.40812,-0.39341 1.61766,-3.04567 4.50173,-5.893917 l 5.24377,-5.178632 84.498265,81.547407 c 46.47404,44.85107 84.83217,81.86929 85.24029,82.26269 0.40812,0.39341 -1.61767,3.04568 -4.50174,5.89392 l -5.24377,5.17864 z m 45.158825,13.26458 -6.28513,-6.3415 2.06402,-6.12696 c 1.8194,-5.4008 2.06402,-8.5603 2.06402,-26.658498 v -20.53154 h 9.5 9.5 l -0.0174,19.75 c -0.0196,22.338058 -1.19772,30.141378 -6.03886,39.999998 -1.68801,3.4375 -3.39141,6.25 -3.78533,6.25 -0.39392,0 -3.54454,-2.85368 -7.00136,-6.3415 z m -52.459095,1.89756 c -8.8364,-3.15187 -15.39324,-9.61653 -18.77162,-18.5077 -1.97297,-5.19245 -2.63662,-13.479608 -1.03158,-12.881698 0.49214,0.18334 8.37793,7.645838 17.52399,16.583338 l 16.629195,16.25 -5.273995,-0.0439 c -2.90069,-0.0241 -6.98489,-0.65416 -9.07599,-1.40005 z m 8.80201,-43.848388 -29,-28.06679 v -16.57044 c 0,-15.414157 0.16181,-16.873653 2.3189,-20.915658 6.19095,-11.6007733 17.02909,-17.6761983 30.181095,-16.9183133 12.57914,0.724874 22.66714,7.912459 26.86947,19.1441903 2.03969,5.45158 2.13029,7.344891 2.12495,44.406851 -0.005,35.897928 -0.56361,45.246628 -2.78145,46.563588 -0.39213,0.23285 -13.76297,-12.206698 -29.712965,-27.643428 z"
     inkscape:connector-curvature="0" />
  <path
     inkscape:connector-curvature="0"
     id="path351"
     d="M 97.540635,113.24138 C 51.066585,68.390302 12.708455,31.372092 12.300345,30.978682 c -0.40812,-0.39341 1.61766,-3.04567 4.50173,-5.893917 l 5.24377,-5.178632 84.498265,81.547407 c 46.47404,44.85107 84.83217,81.86929 85.24029,82.26269 0.40812,0.39341 -1.61767,3.04568 -4.50174,5.89392 l -5.24377,5.17864 z"
     style="fill:#ff0000" />
</svg>
